# xmcd
#
# Track frame offsets:
#   150
#   16085
#   30068
#   47615
#   68146
#   91439
#   112518
#   128643
#   142423
#   160284
#   178254
#
# Disc length: 2616 seconds
#
# Revision: 0
# Processed by: cddbd v1.5.2PL0 Copyright (c) Steve Scherf et al.
# Submitted via: uFREEDB 1.6.2
#
DISCID=850a360b
DTITLE=Julio Iglesias - Divorcio
DYEAR=2003
DGENRE=Easy Listening
TTITLE0=Crazy in Love
TTITLE1=Crazy in Love
TTITLE2=Crazy in Love
TTITLE3=Crazy in Love
TTITLE4=Crazy in Love
TTITLE5=Crazy in Love
TTITLE6=Crazy in Love
TTITLE7=Crazy in Love
TTITLE8=Crazy in Love
TTITLE9=Crazy in Love
TTITLE10=Crazy in Love
EXTD=
EXTT0=
EXTT1=
EXTT2=
EXTT3=
EXTT4=
EXTT5=
EXTT6=
EXTT7=
EXTT8=
EXTT9=
EXTT10=
PLAYORDER=
